<mxfile host="app.diagrams.net" modified="2023-10-31T11:39:55.720Z" agent="Mozilla/5.0 (Windows NT 10.0; Win64; x64) AppleWebKit/537.36 (KHTML, like Gecko) Chrome/118.0.0.0 Safari/537.36" etag="mB2wKjnodQNbLWeJb6WD" version="22.0.8" type="device">
  <diagram name="Page-1" id="-euo_Hw30YZSZVMU8U-v">
    <mxGraphModel dx="842" dy="534" grid="1" gridSize="10" guides="1" tooltips="1" connect="1" arrows="1" fold="1" page="1" pageScale="1" pageWidth="1654" pageHeight="1169" math="0" shadow="0">
      <root>
        <mxCell id="0" />
        <mxCell id="1" parent="0" />
        <mxCell id="PAZ2XYBtNi6wZJPCC69A-5" value="" style="rounded=0;whiteSpace=wrap;html=1;" vertex="1" parent="1">
          <mxGeometry x="540" y="250" width="340" height="200" as="geometry" />
        </mxCell>
        <mxCell id="PAZ2XYBtNi6wZJPCC69A-10" value="" style="rounded=0;whiteSpace=wrap;html=1;" vertex="1" parent="1">
          <mxGeometry x="550" y="275" width="320" height="164" as="geometry" />
        </mxCell>
        <mxCell id="PAZ2XYBtNi6wZJPCC69A-1" value="" style="rounded=0;whiteSpace=wrap;html=1;" vertex="1" parent="1">
          <mxGeometry x="540" y="450" width="340" height="100" as="geometry" />
        </mxCell>
        <mxCell id="PAZ2XYBtNi6wZJPCC69A-2" value="Server-server Messaging APIs" style="rounded=0;whiteSpace=wrap;html=1;" vertex="1" parent="1">
          <mxGeometry x="722.5" y="472" width="147.5" height="68" as="geometry" />
        </mxCell>
        <mxCell id="PAZ2XYBtNi6wZJPCC69A-6" value="&lt;b&gt;Core&lt;/b&gt;" style="text;html=1;strokeColor=none;fillColor=none;align=center;verticalAlign=middle;whiteSpace=wrap;rounded=0;" vertex="1" parent="1">
          <mxGeometry x="680" y="450" width="60" height="20" as="geometry" />
        </mxCell>
        <mxCell id="PAZ2XYBtNi6wZJPCC69A-7" value="&lt;b&gt;Engine&lt;/b&gt;" style="text;html=1;strokeColor=none;fillColor=none;align=center;verticalAlign=middle;whiteSpace=wrap;rounded=0;" vertex="1" parent="1">
          <mxGeometry x="680" y="250" width="60" height="20" as="geometry" />
        </mxCell>
        <mxCell id="PAZ2XYBtNi6wZJPCC69A-11" value="Server" style="text;html=1;strokeColor=none;fillColor=none;align=center;verticalAlign=middle;whiteSpace=wrap;rounded=0;" vertex="1" parent="1">
          <mxGeometry x="550" y="278" width="40" height="10" as="geometry" />
        </mxCell>
        <mxCell id="PAZ2XYBtNi6wZJPCC69A-9" value="" style="rounded=0;whiteSpace=wrap;html=1;" vertex="1" parent="1">
          <mxGeometry x="560" y="290" width="140" height="120" as="geometry" />
        </mxCell>
        <mxCell id="PAZ2XYBtNi6wZJPCC69A-17" value="ExecutionManager" style="rounded=0;whiteSpace=wrap;html=1;" vertex="1" parent="1">
          <mxGeometry x="567.5" y="311" width="125" height="20" as="geometry" />
        </mxCell>
        <mxCell id="PAZ2XYBtNi6wZJPCC69A-21" value="WorkerServer" style="text;html=1;strokeColor=none;fillColor=none;align=center;verticalAlign=middle;whiteSpace=wrap;rounded=0;" vertex="1" parent="1">
          <mxGeometry x="610" y="296" width="40" height="10" as="geometry" />
        </mxCell>
        <mxCell id="PAZ2XYBtNi6wZJPCC69A-22" value="MessageConsumer" style="rounded=0;whiteSpace=wrap;html=1;" vertex="1" parent="1">
          <mxGeometry x="567.5" y="359" width="125" height="20" as="geometry" />
        </mxCell>
        <mxCell id="PAZ2XYBtNi6wZJPCC69A-23" value="MessageProducer" style="rounded=0;whiteSpace=wrap;html=1;" vertex="1" parent="1">
          <mxGeometry x="567.5" y="383" width="125" height="20" as="geometry" />
        </mxCell>
        <mxCell id="PAZ2XYBtNi6wZJPCC69A-14" value="Functionable" style="rounded=1;whiteSpace=wrap;html=1;shadow=1;glass=0;" vertex="1" parent="1">
          <mxGeometry x="567.5" y="335" width="125" height="20" as="geometry" />
        </mxCell>
        <mxCell id="PAZ2XYBtNi6wZJPCC69A-24" value="" style="group" vertex="1" connectable="0" parent="1">
          <mxGeometry x="550" y="472" width="150" height="70" as="geometry" />
        </mxCell>
        <mxCell id="PAZ2XYBtNi6wZJPCC69A-3" value="" style="rounded=0;whiteSpace=wrap;html=1;" vertex="1" parent="PAZ2XYBtNi6wZJPCC69A-24">
          <mxGeometry width="150" height="70" as="geometry" />
        </mxCell>
        <mxCell id="PAZ2XYBtNi6wZJPCC69A-18" value="Entity" style="text;html=1;strokeColor=none;fillColor=none;align=center;verticalAlign=middle;whiteSpace=wrap;rounded=0;" vertex="1" parent="PAZ2XYBtNi6wZJPCC69A-24">
          <mxGeometry x="2.0689655172413794" y="3.121212121212121" width="31.03448275862069" height="10.606060606060607" as="geometry" />
        </mxCell>
        <mxCell id="PAZ2XYBtNi6wZJPCC69A-19" value="Vertex" style="rounded=1;whiteSpace=wrap;html=1;glass=0;shadow=1;" vertex="1" parent="PAZ2XYBtNi6wZJPCC69A-24">
          <mxGeometry x="12.931034482758621" y="43.484848484848484" width="122.58620689655173" height="21.212121212121215" as="geometry" />
        </mxCell>
        <mxCell id="PAZ2XYBtNi6wZJPCC69A-20" value="Graph" style="rounded=0;whiteSpace=wrap;html=1;" vertex="1" parent="PAZ2XYBtNi6wZJPCC69A-24">
          <mxGeometry x="13.706896551724139" y="16.96969696969697" width="122.58620689655173" height="21.212121212121215" as="geometry" />
        </mxCell>
        <mxCell id="PAZ2XYBtNi6wZJPCC69A-31" value="" style="group" vertex="1" connectable="0" parent="1">
          <mxGeometry x="722.5" y="290" width="140" height="140" as="geometry" />
        </mxCell>
        <mxCell id="PAZ2XYBtNi6wZJPCC69A-8" value="" style="rounded=0;whiteSpace=wrap;html=1;" vertex="1" parent="PAZ2XYBtNi6wZJPCC69A-31">
          <mxGeometry y="1" width="140" height="142" as="geometry" />
        </mxCell>
        <mxCell id="PAZ2XYBtNi6wZJPCC69A-25" value="MasterServer" style="text;html=1;strokeColor=none;fillColor=none;align=center;verticalAlign=middle;whiteSpace=wrap;rounded=0;" vertex="1" parent="PAZ2XYBtNi6wZJPCC69A-31">
          <mxGeometry x="50" y="3" width="40" height="10" as="geometry" />
        </mxCell>
        <mxCell id="PAZ2XYBtNi6wZJPCC69A-26" value="MessageConsumer" style="rounded=0;whiteSpace=wrap;html=1;" vertex="1" parent="PAZ2XYBtNi6wZJPCC69A-31">
          <mxGeometry x="7.5" y="69" width="125" height="20" as="geometry" />
        </mxCell>
        <mxCell id="PAZ2XYBtNi6wZJPCC69A-27" value="MessageProducer" style="rounded=0;whiteSpace=wrap;html=1;" vertex="1" parent="PAZ2XYBtNi6wZJPCC69A-31">
          <mxGeometry x="7.5" y="93" width="125" height="20" as="geometry" />
        </mxCell>
        <mxCell id="PAZ2XYBtNi6wZJPCC69A-30" value="WorkerManager" style="rounded=0;whiteSpace=wrap;html=1;" vertex="1" parent="PAZ2XYBtNi6wZJPCC69A-31">
          <mxGeometry x="7.5" y="45" width="125" height="20" as="geometry" />
        </mxCell>
        <mxCell id="PAZ2XYBtNi6wZJPCC69A-28" value="GraphPartitioner" style="rounded=1;whiteSpace=wrap;html=1;shadow=1;glass=0;" vertex="1" parent="PAZ2XYBtNi6wZJPCC69A-31">
          <mxGeometry x="7.5" y="118" width="125" height="20" as="geometry" />
        </mxCell>
        <mxCell id="PAZ2XYBtNi6wZJPCC69A-29" value="Executor" style="rounded=0;whiteSpace=wrap;html=1;" vertex="1" parent="PAZ2XYBtNi6wZJPCC69A-31">
          <mxGeometry x="7.5" y="20" width="125" height="20" as="geometry" />
        </mxCell>
        <mxCell id="PAZ2XYBtNi6wZJPCC69A-32" value="" style="rounded=0;whiteSpace=wrap;html=1;" vertex="1" parent="1">
          <mxGeometry x="540" y="550" width="340" height="80" as="geometry" />
        </mxCell>
        <mxCell id="PAZ2XYBtNi6wZJPCC69A-33" value="&lt;b&gt;Common&lt;/b&gt;" style="text;html=1;strokeColor=none;fillColor=none;align=center;verticalAlign=middle;whiteSpace=wrap;rounded=0;" vertex="1" parent="1">
          <mxGeometry x="680" y="550" width="60" height="20" as="geometry" />
        </mxCell>
        <mxCell id="PAZ2XYBtNi6wZJPCC69A-34" value="Computable" style="rounded=1;whiteSpace=wrap;html=1;glass=0;shadow=1;" vertex="1" parent="1">
          <mxGeometry x="550" y="570" width="100" height="20" as="geometry" />
        </mxCell>
        <mxCell id="PAZ2XYBtNi6wZJPCC69A-36" value="Mail" style="rounded=0;whiteSpace=wrap;html=1;" vertex="1" parent="1">
          <mxGeometry x="660" y="570" width="100" height="20" as="geometry" />
        </mxCell>
        <mxCell id="PAZ2XYBtNi6wZJPCC69A-37" value="MailDeserializer" style="rounded=0;whiteSpace=wrap;html=1;" vertex="1" parent="1">
          <mxGeometry x="770" y="570" width="100" height="20" as="geometry" />
        </mxCell>
        <mxCell id="PAZ2XYBtNi6wZJPCC69A-38" value="Message" style="rounded=0;whiteSpace=wrap;html=1;" vertex="1" parent="1">
          <mxGeometry x="660" y="600" width="100" height="20" as="geometry" />
        </mxCell>
        <mxCell id="PAZ2XYBtNi6wZJPCC69A-39" value="MailSerializer" style="rounded=0;whiteSpace=wrap;html=1;" vertex="1" parent="1">
          <mxGeometry x="770" y="600" width="100" height="20" as="geometry" />
        </mxCell>
        <mxCell id="PAZ2XYBtNi6wZJPCC69A-40" value="Exception" style="rounded=0;whiteSpace=wrap;html=1;" vertex="1" parent="1">
          <mxGeometry x="550" y="600" width="100" height="20" as="geometry" />
        </mxCell>
        <mxCell id="PAZ2XYBtNi6wZJPCC69A-41" value="" style="rounded=0;whiteSpace=wrap;html=1;" vertex="1" parent="1">
          <mxGeometry x="540" y="165" width="340" height="85" as="geometry" />
        </mxCell>
        <mxCell id="PAZ2XYBtNi6wZJPCC69A-42" value="&lt;b&gt;Runtime&lt;/b&gt;" style="text;html=1;strokeColor=none;fillColor=none;align=center;verticalAlign=middle;whiteSpace=wrap;rounded=0;" vertex="1" parent="1">
          <mxGeometry x="680" y="169" width="60" height="17" as="geometry" />
        </mxCell>
        <mxCell id="PAZ2XYBtNi6wZJPCC69A-43" value="TrilobitaEnvironment" style="rounded=0;whiteSpace=wrap;html=1;" vertex="1" parent="1">
          <mxGeometry x="571" y="191" width="125" height="20" as="geometry" />
        </mxCell>
        <mxCell id="PAZ2XYBtNi6wZJPCC69A-44" value="InputParser" style="rounded=1;whiteSpace=wrap;html=1;shadow=1;glass=0;" vertex="1" parent="1">
          <mxGeometry x="571" y="218" width="125" height="20" as="geometry" />
        </mxCell>
        <mxCell id="PAZ2XYBtNi6wZJPCC69A-45" value="Configuration" style="rounded=0;whiteSpace=wrap;html=1;" vertex="1" parent="1">
          <mxGeometry x="730" y="191" width="125" height="20" as="geometry" />
        </mxCell>
        <mxCell id="PAZ2XYBtNi6wZJPCC69A-46" value="Monitor" style="rounded=0;whiteSpace=wrap;html=1;" vertex="1" parent="1">
          <mxGeometry x="730" y="218" width="125" height="20" as="geometry" />
        </mxCell>
        <mxCell id="PAZ2XYBtNi6wZJPCC69A-48" value="Vertex" style="rounded=0;whiteSpace=wrap;html=1;" vertex="1" parent="1">
          <mxGeometry x="1010" y="300" width="100" height="31" as="geometry" />
        </mxCell>
        <mxCell id="PAZ2XYBtNi6wZJPCC69A-50" value="PageRankVertex" style="rounded=0;whiteSpace=wrap;html=1;" vertex="1" parent="1">
          <mxGeometry x="1010" y="400" width="100" height="30" as="geometry" />
        </mxCell>
        <mxCell id="PAZ2XYBtNi6wZJPCC69A-51" value="" style="endArrow=block;endSize=16;endFill=0;html=1;rounded=0;entryX=0.5;entryY=1;entryDx=0;entryDy=0;exitX=0.5;exitY=0;exitDx=0;exitDy=0;" edge="1" parent="1" source="PAZ2XYBtNi6wZJPCC69A-50" target="PAZ2XYBtNi6wZJPCC69A-48">
          <mxGeometry width="160" relative="1" as="geometry">
            <mxPoint x="810" y="390" as="sourcePoint" />
            <mxPoint x="970" y="390" as="targetPoint" />
          </mxGeometry>
        </mxCell>
        <mxCell id="PAZ2XYBtNi6wZJPCC69A-52" value="PageRankValue" style="rounded=0;whiteSpace=wrap;html=1;" vertex="1" parent="1">
          <mxGeometry x="1130" y="400" width="100" height="30" as="geometry" />
        </mxCell>
        <mxCell id="PAZ2XYBtNi6wZJPCC69A-54" value="Computable" style="rounded=0;whiteSpace=wrap;html=1;" vertex="1" parent="1">
          <mxGeometry x="1130" y="300" width="100" height="31" as="geometry" />
        </mxCell>
        <mxCell id="PAZ2XYBtNi6wZJPCC69A-56" value="" style="endArrow=block;dashed=1;endFill=0;endSize=12;html=1;rounded=0;entryX=0.5;entryY=1;entryDx=0;entryDy=0;exitX=0.5;exitY=0;exitDx=0;exitDy=0;" edge="1" parent="1" source="PAZ2XYBtNi6wZJPCC69A-52" target="PAZ2XYBtNi6wZJPCC69A-54">
          <mxGeometry width="160" relative="1" as="geometry">
            <mxPoint x="840" y="290" as="sourcePoint" />
            <mxPoint x="1000" y="290" as="targetPoint" />
          </mxGeometry>
        </mxCell>
      </root>
    </mxGraphModel>
  </diagram>
</mxfile>
